<svg version="1.0" xmlns="http://www.w3.org/2000/svg" width="1209.3" height="1209.3" viewBox="0 0 907 907">
<path d="M103.5 5.1a126.9 126.9 0 0 0-50 20c-9.4 6.5-22 19-28.5 28.5a124.6 124.6 0 0 0-19.9 50.8c-1.5 10.9-1.5 687.3 0 698.2a117 117 0 0 0 99.3 99.3c10.9 1.5 687.3 1.5 698.2 0a117 117 0 0 0 99.3-99.3c1.5-10.9 1.5-687.3 0-698.2a117 117 0 0 0-99.3-99.3c-9.5-1.3-689.9-1.3-699.1 0zM804 7.5a113.7 113.7 0 0 1 95.5 95.5c2.2 14.3 2.2 686.7 0 701a113.7 113.7 0 0 1-95.5 95.5c-14.3 2.2-686.7 2.2-701 0a115.2 115.2 0 0 1-92-79c-5.2-17.2-5 .4-5-367 0-291.8.2-342.4 1.5-350.5a114 114 0 0 1 94.9-95.5c6.4-1 80.6-1.3 350.1-1.4 293-.1 343.4.1 351.5 1.4z"/><path d="M695.5 156.4a20.7 20.7 0 0 0-10.1 12.1c-1.1 6 .4 10.6 5 15.1 7.2 7.2 16 7.2 23.2 0 6.7-6.7 7.2-15.4 1.1-22.3-5.2-6-12.5-7.8-19.2-4.9zm15.2 3.4a15 15 0 0 1 6 13.8 14.7 14.7 0 0 1-27.4 5.8 14.6 14.6 0 0 1 13.8-22.1c2.6.2 6 1.3 7.6 2.5zM430.5 233.1a222.3 222.3 0 0 0-197.4 199.3A222 222 0 0 0 398.4 668c19.5 5 31.8 6.4 55.1 6.4s35.6-1.4 55.1-6.4a222.3 222.3 0 0 0 165.3-193.4A222.3 222.3 0 0 0 487 234.5a334.2 334.2 0 0 0-56.5-1.4zm54.5 21.4c42.6 7 80 26.3 110.6 56.9a200.7 200.7 0 0 1 57.1 111.1c2.3 13.9 2.3 48.1 0 62a200.7 200.7 0 0 1-57.1 111.1 200.7 200.7 0 0 1-111.1 57.1 262.4 262.4 0 0 1-62-.1 199.5 199.5 0 0 1-111.1-57 201 201 0 0 1-57.1-111.1 258 258 0 0 1 .5-64.5 207 207 0 0 1 35.7-84.7c9.3-13 30.4-34.2 43.7-43.9 29.3-21.6 64.5-35 102.3-38.8 8.3-.8 39.4.4 48.5 1.9z"/></svg>